<svg xmlns="http://www.w3.org/2000/svg" width="100%" height="100%" viewBox="0 0 1189.963 420.279">
  <g id="Group_4" data-name="Group 4" transform="translate(-236.69 -279.373)">
    <path id="Path_1" data-name="Path 1" d="M268.849,420.364c31.734-61.732,47.264-78.13,126.937-104.173s191.756,0,191.756,0l675.2,79.095V576.624l-675.2,77.165s-112.083,22.667-191.756,0-95.2-32.313-126.937-90.669c-15.042-27.661-22.954-47.3-23.746-67.13C244.244,474.5,252.156,452.835,268.849,420.364Z" transform="translate(163.413 35.248)" fill="#7b7b7b" stroke="#707070" stroke-width="1"/>
    <path id="Path_2" data-name="Path 2" d="M415.111,499.772H326.354s-9.508-21.725-28.967-28.967-29.408-7.242-48.867,0-29.33,25.178-29.33,49.22,12.849,40.814,29.33,46.948c19.458,7.242,29.408,7.242,48.867,0s28.967-28.967,28.967-28.967h88.757Z" transform="translate(18 1)" fill="#7b7b7b" stroke="#707070" stroke-width="1"/>
    <path id="Path_3" data-name="Path 3" d="M483.549,385.348c-1.865,6.371,39.969-3.347,56.225-10.518s47.571-26.152,38.869-28.638-50.965,13.674-50.965,13.674S485.414,378.977,483.549,385.348Z" fill="#7b7b7b" stroke="#000" stroke-width="2"/>
    <path id="Path_4" data-name="Path 4" d="M528.852,363.356s4.413-22.066-15.814-23.169-21.79-12.688-29.054-16.917" fill="none" stroke="#000" stroke-width="8"/>
    <path id="Path_5" data-name="Path 5" d="M481.213,327.6" fill="none" stroke="#707070" stroke-width="1"/>
    <path id="Path_6" data-name="Path 6" d="M470.627,326.032l-42.317,2.98,21.5-4.809-8.487-7.638,14.145,2.546-25.744-18.954,25.744,7.921-5.658-9.9s4.809,3.678,5.658,4.243-5.658-14.711-5.658-14.711l18.106,14.711-5.092-18.106,9.336,13.862,8.2-19.8-4.362,42Z" transform="translate(12 1)" fill="#ff5531"/>
  </g>
</svg>
