<svg xmlns="http://www.w3.org/2000/svg" width="1475.114" height="520.223" viewBox="0 0 1475.114 520.223">
  <g id="Group_1" data-name="Group 1" transform="translate(-112.077 -248.175)">
    <path id="Path_9" data-name="Path 9" d="M1043.246,606.285c19.117,40.965,91.83,68.275,203.46,83.3s243.06-23.214,243.06-23.214l-16.386-28.676H1253.534l-140.647-86.027S1024.129,565.319,1043.246,606.285Z" transform="translate(5 24)" fill="#00a115" stroke="#000" stroke-width="2"/>
    <path id="Path_11" data-name="Path 11" d="M1341,854.046s61.672-17.776,87.527-16.968,32.319.808,35.552,12.928,0,60.6,0,60.6-17.776,8.888-35.552,5.656-8.08-33.128-8.08-33.128l16.968-4.848-22.624,4.848s9.7,9.7-4.848,21.008S1341,883.134,1341,883.134Z" transform="translate(121 -191)" fill="#ffd8e8" stroke="#707070" stroke-width="1"/>
    <path id="Path_2" data-name="Path 2" d="M263.078,567.7l-150,120V703.85s0,27.692,94.616,0S330,641.542,330,641.542s189.232,23.077,203.078,23.077,166.155-23.077,166.155-23.077S844.606,754.811,932.3,766.349s173.092-74.038,216.938-101.731,62.308-76.154,62.308-76.154S1186.16,600,1158.467,533.08c-9.5-22.955,7.147-45.1,0-53.077-13.128-14.665-46.154,0-46.154,0Z" fill="#00a115" stroke="#000" stroke-width="2"/>
    <path id="Path_3" data-name="Path 3" d="M1283.432,771.35s-22.84-15.945-25.856-39.646,13.79-55.16,13.79-55.16,18.961-24.132,51.712-39.646,115.491,0,115.491,0l32.751,13.79s22.409,31.027,10.342,58.607-24.132,51.712-24.132,51.712l9.125,17.6,15.007,28.943-24.132,13.79,13.79,27.58-13.79,89.634-160.308-48.265v-68.95Z" transform="translate(-128.596 -269.471)" fill="#ffd8e8" stroke="#707070" stroke-width="1"/>
    <g id="Ellipse_1" data-name="Ellipse 1" transform="translate(1146 476)" fill="#ffd8e8" stroke="#707070" stroke-width="1">
      <ellipse cx="21" cy="39" rx="21" ry="39" stroke="none"/>
      <ellipse cx="21" cy="39" rx="20.5" ry="38.5" fill="none"/>
    </g>
    <path id="Path_5" data-name="Path 5" d="M1455.05,757.92c2.867-6.79,3.018-7.846,11.467-27.159s10.26-33.194,4.828-47.075-14.485-10.26-28.969-13.881-24.141,10.26-24.141,10.26-27.31-19.011-45.265-10.26-83.287,16.3-71.82,35,24.478,21.066,32.637,50.836,0,68.245,0,68.245l-19.5-6.035s8.356-40.854,0-56.639-19.963-15.785-23.677-15.32-9.749,6.035-12.535,17.642-20.891-22.748-21.356-30.641,2.321-43.176,16.249-58.032,18.57-25.534,55.246-41.319,108.635.464,121.635,5.571,26.463,10.678,32.033,25.07,4.178,38.069,0,45.033-24.141,52-24.141,52Z" transform="translate(-128.459 -268.664)" stroke="#707070" stroke-width="1"/>
    <path id="Path_6" data-name="Path 6" d="M699.845,640.8S681.82,584.24,726.571,526.438" fill="none" stroke="#707070" stroke-width="1"/>
    <path id="Path_7" data-name="Path 7" d="M1043.246,606.285c19.117,40.965,91.83,68.275,203.46,83.3s243.06-23.214,243.06-23.214l-16.386-28.676H1253.534l-140.647-86.027S1024.129,565.319,1043.246,606.285Z" transform="translate(-54 60)" fill="#00a115" stroke="#000" stroke-width="2"/>
    <path id="Path_4" data-name="Path 4" d="M1541.546,927.7" transform="translate(-200.546 -344.802)" fill="none" stroke="#707070" stroke-width="1"/>
    <path id="Path_8" data-name="Path 8" d="M113.077,689.279V707.3a20.48,20.48,0,0,0,11.85,7.458c8.08,1.865,16.781,3.108,52.209,0s94.473-27.969,116.226-42.264a241.432,241.432,0,0,0,37.292-30.455l201.376,23.618,167.814-23.618s-18.024-55.316,29.833-121.82S262.286,568.7,262.286,568.7Z" fill="#2f34c1" stroke="#000" stroke-width="2"/>
    <path id="Path_1" data-name="Path 1" d="M205.386,420c-11.539-96.924,32.308-90,32.308-90s66.923,9.231,87.693-36.923,55.385-43.846,55.385-43.846,43.846,152.308,330,129.231S1112.313,480,1112.313,480s11.539,80.77-57.693,87.693-99.231-50.769-302.309-43.846S390,664.619,237.693,551.541,216.924,516.926,205.386,420Z" fill="#8f45a5" stroke="#000" stroke-width="2"/>
    <path id="Path_10" data-name="Path 10" d="M1341,854.046s61.672-17.776,87.527-16.968,32.319.808,35.552,12.928,0,60.6,0,60.6-17.776,8.888-35.552,5.656-8.08-33.128-8.08-33.128l16.968-4.848-22.624,4.848s9.7,9.7-4.848,21.008S1341,883.134,1341,883.134Z" transform="translate(78 -155)" fill="#ffd8e8" stroke="#707070" stroke-width="1"/>
  </g>
</svg>
